<?xml version="1.0" standalone="no"?>
<!DOCTYPE svg PUBLIC "-//W3C//DTD SVG 20010904//EN"
 "http://www.w3.org/TR/2001/REC-SVG-20010904/DTD/svg10.dtd">
<svg version="1.0" xmlns="http://www.w3.org/2000/svg"
 width="256.000000pt" height="256.000000pt" viewBox="0 0 256.000000 256.000000"
 preserveAspectRatio="xMidYMid meet">

<g transform="translate(0.000000,256.000000) scale(0.100000,-0.100000)"
fill="#000000" stroke="none">
<path d="M943 2545 c-117 -32 -216 -103 -279 -201 -27 -43 -40 -53 -70 -59
-97 -18 -197 -96 -229 -178 -12 -30 -28 -49 -60 -69 -55 -33 -92 -89 -107
-161 -10 -48 -9 -64 6 -114 29 -91 92 -144 213 -179 10 -3 13 -140 13 -643 l0
-639 -34 -6 c-134 -25 -159 -217 -36 -278 32 -17 91 -18 779 -18 l743 0 39 22
c41 23 79 84 79 128 0 48 -39 108 -84 129 -23 12 -48 21 -54 21 -7 0 -12 14
-12 30 l0 30 173 0 c188 0 230 7 278 47 67 57 69 67 69 473 0 408 -2 420 -72
473 -49 38 -103 46 -285 47 -162 0 -163 0 -162 23 0 14 15 33 42 52 47 34 87
103 87 151 0 18 8 38 20 49 25 23 60 115 60 159 0 81 -47 162 -125 211 -41 27
-54 41 -64 76 -18 61 -110 151 -178 173 -54 18 -130 23 -181 11 -28 -6 -33 -2
-68 51 -104 157 -319 238 -501 189z m289 -103 c79 -38 149 -110 186 -190 24
-50 27 -69 27 -162 0 -93 -3 -111 -27 -163 l-27 -57 31 -16 c30 -15 32 -15 45
2 48 65 76 232 54 319 -7 26 -9 50 -6 54 4 3 37 6 73 6 55 0 75 -5 115 -28 52
-31 89 -80 107 -142 30 -103 -63 -233 -180 -253 -43 -7 -45 -9 -45 -42 0 -28
4 -36 21 -38 33 -5 130 33 175 69 41 32 99 120 99 151 0 28 20 31 47 7 37 -35
53 -72 53 -124 0 -52 -16 -89 -54 -124 -22 -20 -26 -33 -26 -77 0 -45 -4 -57
-30 -82 -49 -49 -102 -52 -163 -10 -16 11 -30 19 -31 17 -2 -2 -13 -23 -25
-46 -35 -70 -105 -98 -174 -69 -54 22 -77 67 -77 149 l0 67 -115 0 -115 0 0
-168 c0 -177 -4 -192 -46 -192 -33 0 -42 18 -46 103 -3 71 -6 79 -36 110 -28
27 -39 32 -82 32 -43 0 -54 -5 -82 -33 l-33 -32 -5 -315 c-5 -309 -5 -315 -27
-337 -31 -30 -84 -30 -118 2 l-25 23 0 403 0 402 -143 4 c-133 3 -146 5 -180
28 -70 48 -99 149 -62 219 17 35 68 79 99 87 15 3 27 20 39 55 58 162 259 215
381 101 33 -31 76 -116 76 -150 0 -21 4 -23 38 -20 36 3 37 4 34 38 -5 55 -58
155 -104 194 -23 20 -61 43 -85 52 -23 9 -43 20 -43 24 0 12 54 76 86 103 76
64 150 87 265 84 84 -2 103 -6 161 -35z m-640 -1236 c3 -360 4 -376 24 -402
44 -60 108 -87 173 -73 48 10 83 39 108 89 22 43 23 53 23 336 0 314 1 320 52
312 21 -3 23 -9 29 -84 5 -61 12 -90 28 -113 46 -64 147 -63 193 2 21 29 23
46 26 170 l4 137 33 0 c31 0 33 -2 38 -46 18 -164 243 -236 356 -116 21 24 33
28 59 24 l32 -4 2 -607 3 -606 58 -5 c42 -4 63 -11 73 -25 20 -27 17 -72 -6
-95 -20 -20 -33 -20 -764 -20 l-745 0 -20 26 c-26 34 -26 54 0 88 l20 26 535
0 534 0 0 40 0 40 -480 0 -480 0 0 640 0 640 45 0 44 0 3 -374z m1638 99 c61
-32 60 -24 60 -428 l0 -369 -34 -34 -34 -34 -186 0 -186 0 0 60 0 60 111 0
c130 0 169 13 194 66 14 29 16 68 13 269 l-3 235 -33 32 -32 33 -125 4 -125 3
0 59 0 59 175 0 c137 0 182 -3 205 -15z m-145 -425 l0 -235 -117 -3 -118 -3 0
241 0 241 118 -3 117 -3 0 -235z"/>
<path d="M1060 2371 c0 -39 2 -41 30 -41 17 0 51 -10 75 -21 46 -22 115 -91
115 -116 0 -16 -1 -16 39 -2 36 13 38 23 13 64 -47 77 -137 137 -225 150 l-47
7 0 -41z"/>
<path d="M1586 2162 c-3 -3 -6 -20 -6 -38 0 -26 5 -33 25 -38 13 -3 35 -20 47
-36 16 -23 30 -30 55 -30 25 0 33 4 33 18 0 25 -35 78 -63 97 -30 19 -83 35
-91 27z"/>
<path d="M590 2129 c-14 -6 -36 -20 -48 -32 -24 -22 -57 -76 -50 -82 2 -2 19
-6 39 -10 31 -6 37 -4 42 14 3 12 21 28 41 36 32 13 36 20 36 50 0 38 -12 43
-60 24z"/>
<path d="M370 1900 c-27 -27 -35 -65 -20 -100 23 -56 41 -60 245 -60 l185 0 0
35 0 35 -177 2 -178 3 2 28 c2 34 -13 77 -27 77 -5 0 -19 -9 -30 -20z"/>
<path d="M880 1775 l0 -35 75 0 75 0 0 35 0 35 -75 0 -75 0 0 -35z"/>
<path d="M1540 260 l0 -40 40 0 40 0 0 40 0 40 -40 0 -40 0 0 -40z"/>
</g>
</svg>
